<svg version="1.1" id="Icon_Set" xmlns="http://www.w3.org/2000/svg" x="0" y="0" viewBox="0 0 64 64" style="enable-background:new 0 0 64 64" xml:space="preserve"><style>.st1{fill:#263238}.st2{fill:#ffd740}</style><path class="st1" d="M40 28a.5.5 0 0 1-.354-.853l4-4a.5.5 0 0 1 .707.707l-4 4A.498.498 0 0 1 40 28zM20 48a.5.5 0 0 1-.354-.853l4-4a.5.5 0 0 1 .707.707l-4 4A.498.498 0 0 1 20 48z"/><path class="st1" d="M44 28h-4a.5.5 0 0 1-.5-.5v-4a.5.5 0 0 1 1 0V27H44a.5.5 0 0 1 0 1zM24 48a.5.5 0 0 1-.5-.5V44H20a.5.5 0 0 1 0-1h4a.5.5 0 0 1 .5.5v4a.5.5 0 0 1-.5.5zM44 48a.502.502 0 0 1-.354-.146l-4-4a.5.5 0 0 1 .707-.707l4 4A.5.5 0 0 1 44 48zM24 28a.502.502 0 0 1-.354-.146l-4-4a.5.5 0 0 1 .707-.707l4 4A.5.5 0 0 1 24 28z"/><path class="st1" d="M40 48a.5.5 0 0 1-.5-.5v-4a.5.5 0 0 1 .5-.5h4a.5.5 0 0 1 0 1h-3.5v3.5a.5.5 0 0 1-.5.5zM24 28h-4a.5.5 0 0 1 0-1h3.5v-3.5a.5.5 0 0 1 1 0v4a.5.5 0 0 1-.5.5z"/><circle class="st2" cx="32" cy="35.5" r="8"/><path class="st1" d="M32 44c-4.687 0-8.5-3.813-8.5-8.5S27.313 27 32 27s8.5 3.813 8.5 8.5S36.687 44 32 44zm0-16c-4.136 0-7.5 3.364-7.5 7.5S27.864 43 32 43s7.5-3.364 7.5-7.5S36.136 28 32 28z"/><path class="st1" d="M32.812 38.375h-2.438a.5.5 0 0 1 0-1h2.438a.688.688 0 0 0 0-1.375h-1.625c-.931 0-1.688-.757-1.688-1.688s.757-1.688 1.688-1.688h2.438a.5.5 0 0 1 0 1h-2.438A.69.69 0 0 0 31.188 35h1.625c.931 0 1.688.757 1.688 1.688s-.758 1.687-1.689 1.687z"/><path class="st1" d="M32 33.625a.5.5 0 0 1-.5-.5v-1.5a.5.5 0 0 1 1 0v1.5a.5.5 0 0 1-.5.5zM32 39.875a.5.5 0 0 1-.5-.5v-1.5a.5.5 0 0 1 1 0v1.5a.5.5 0 0 1-.5.5zM10.005 55c-3.032 0-5.5-2.467-5.5-5.5s2.468-5.5 5.5-5.5 5.5 2.467 5.5 5.5-2.468 5.5-5.5 5.5zm0-10c-2.481 0-4.5 2.019-4.5 4.5s2.019 4.5 4.5 4.5 4.5-2.019 4.5-4.5-2.019-4.5-4.5-4.5z"/><path class="st2" d="m13.472 46.609.373-.31a5 5 0 0 0-8.84 3.201h.472c2.921 0 5.749-1.023 7.995-2.891z"/><path class="st1" d="M5.477 50h-.472a.5.5 0 0 1-.5-.5c0-3.033 2.468-5.5 5.5-5.5 1.634 0 3.173.721 4.224 1.978a.501.501 0 0 1-.065.705l-.373.31A13.021 13.021 0 0 1 5.477 50zm4.528-5a4.508 4.508 0 0 0-4.473 4 12.019 12.019 0 0 0 7.586-2.748A4.487 4.487 0 0 0 10.005 45zM10 59.968a.503.503 0 0 1-.437-.255L7.06 55.25a.51.51 0 0 1-.063-.244l-.001-1.204a.501.501 0 0 1 .753-.432c1.423.833 3.066.838 4.496.009a.5.5 0 0 1 .751.433l.001 1.184a.498.498 0 0 1-.063.244l-2.496 4.473a.503.503 0 0 1-.438.255zm-2.004-5.094 2.003 3.57 1.997-3.579v-.254a5.314 5.314 0 0 1-4-.006v.269z"/><path class="st1" d="M18.005 63.5a.5.5 0 0 1-.5-.5v-3.89c0-.782-.46-1.497-1.173-1.821l-4.043-1.838a.5.5 0 0 1 .414-.91l4.043 1.838a3.008 3.008 0 0 1 1.759 2.731V63a.5.5 0 0 1-.5.5zM2 63.5a.5.5 0 0 1-.5-.5v-3.889c0-1.174.691-2.247 1.761-2.732l4.028-1.829a.5.5 0 1 1 .414.911l-4.029 1.83a2 2 0 0 0-1.174 1.82V63a.5.5 0 0 1-.5.5zM10 63.468a.5.5 0 0 1-.5-.5v-3.5a.5.5 0 0 1 1 0v3.5a.5.5 0 0 1-.5.5zM54 55c-3.032 0-5.5-2.467-5.5-5.5S50.968 44 54 44s5.5 2.467 5.5 5.5S57.032 55 54 55zm0-10c-2.481 0-4.5 2.019-4.5 4.5S51.519 54 54 54s4.5-2.019 4.5-4.5S56.481 45 54 45z"/><path class="st2" d="m57.467 46.609.373-.31A5 5 0 0 0 49 49.5h.472a12.5 12.5 0 0 0 7.995-2.891z"/><path class="st1" d="M49.472 50H49a.5.5 0 0 1-.5-.5c0-3.033 2.468-5.5 5.5-5.5 1.634 0 3.173.721 4.224 1.978a.501.501 0 0 1-.065.705l-.373.31A13.021 13.021 0 0 1 49.472 50zM54 45a4.508 4.508 0 0 0-4.473 4 12.019 12.019 0 0 0 7.586-2.748A4.487 4.487 0 0 0 54 45zM53.995 59.968a.503.503 0 0 1-.437-.255l-2.504-4.463a.51.51 0 0 1-.063-.244l-.001-1.204a.501.501 0 0 1 .753-.432c1.422.833 3.066.838 4.496.009a.5.5 0 0 1 .751.433l.001 1.184a.498.498 0 0 1-.063.244l-2.496 4.473a.5.5 0 0 1-.437.255zm-2.004-5.094 2.003 3.57 1.997-3.579v-.254a5.314 5.314 0 0 1-4-.006v.269z"/><path class="st1" d="M62 63.5a.5.5 0 0 1-.5-.5v-3.89c0-.782-.46-1.497-1.173-1.821l-4.043-1.838a.5.5 0 0 1 .414-.91l4.043 1.838A3.008 3.008 0 0 1 62.5 59.11V63a.5.5 0 0 1-.5.5zM45.995 63.5a.5.5 0 0 1-.5-.5v-3.889c0-1.174.691-2.247 1.761-2.732l4.028-1.829a.5.5 0 0 1 .414.911l-4.029 1.83a2.005 2.005 0 0 0-1.174 1.821V63a.5.5 0 0 1-.5.5zM53.995 63.468a.5.5 0 0 1-.5-.5v-3.5a.5.5 0 0 1 1 0v3.5a.5.5 0 0 1-.5.5zM10.005 11.5c-3.032 0-5.5-2.467-5.5-5.5S6.973.5 10.005.5s5.5 2.467 5.5 5.5-2.468 5.5-5.5 5.5zm0-10c-2.481 0-4.5 2.019-4.5 4.5s2.019 4.5 4.5 4.5 4.5-2.019 4.5-4.5-2.019-4.5-4.5-4.5z"/><path class="st2" d="m13.472 3.109.373-.31A5 5 0 0 0 5.005 6h.472c2.921 0 5.749-1.023 7.995-2.891z"/><path class="st1" d="M5.477 6.5h-.472a.5.5 0 0 1-.5-.5c0-3.033 2.468-5.5 5.5-5.5 1.634 0 3.173.721 4.224 1.978a.501.501 0 0 1-.065.705l-.373.31A13.021 13.021 0 0 1 5.477 6.5zm4.528-5a4.508 4.508 0 0 0-4.473 4 12.019 12.019 0 0 0 7.586-2.748A4.487 4.487 0 0 0 10.005 1.5zM10 16.468a.503.503 0 0 1-.437-.255L7.06 11.75a.51.51 0 0 1-.063-.244l-.001-1.204a.501.501 0 0 1 .752-.432c1.423.833 3.066.837 4.496.009a.5.5 0 0 1 .751.433l.001 1.184a.498.498 0 0 1-.063.244l-2.496 4.473a.5.5 0 0 1-.437.255zm-2.004-5.094 2.003 3.57 1.997-3.579v-.254a5.314 5.314 0 0 1-4-.006v.269z"/><path class="st1" d="M18.005 20a.5.5 0 0 1-.5-.5v-3.89c0-.782-.46-1.497-1.173-1.821l-4.043-1.838a.5.5 0 0 1 .414-.91l4.043 1.838a3.008 3.008 0 0 1 1.759 2.731v3.89a.5.5 0 0 1-.5.5zM2 20a.5.5 0 0 1-.5-.5v-3.889c0-1.174.691-2.247 1.761-2.732l4.028-1.829a.5.5 0 0 1 .414.911l-4.029 1.83a2 2 0 0 0-1.174 1.82V19.5a.5.5 0 0 1-.5.5zM10 19.968a.5.5 0 0 1-.5-.5v-3.5a.5.5 0 0 1 1 0v3.5a.5.5 0 0 1-.5.5zM54 11.5c-3.032 0-5.5-2.467-5.5-5.5S50.968.5 54 .5s5.5 2.467 5.5 5.5-2.468 5.5-5.5 5.5zm0-10c-2.481 0-4.5 2.019-4.5 4.5s2.019 4.5 4.5 4.5 4.5-2.019 4.5-4.5-2.019-4.5-4.5-4.5z"/><path class="st2" d="m57.467 3.109.373-.31A5 5 0 0 0 49 6h.472a12.5 12.5 0 0 0 7.995-2.891z"/><path class="st1" d="M49.472 6.5H49a.5.5 0 0 1-.5-.5c0-3.033 2.468-5.5 5.5-5.5 1.634 0 3.173.721 4.224 1.978a.501.501 0 0 1-.065.705l-.373.31A13.021 13.021 0 0 1 49.472 6.5zM54 1.5a4.508 4.508 0 0 0-4.473 4 12.019 12.019 0 0 0 7.586-2.748A4.487 4.487 0 0 0 54 1.5zM53.995 16.468a.503.503 0 0 1-.437-.255l-2.504-4.463a.51.51 0 0 1-.063-.244l-.001-1.204a.501.501 0 0 1 .753-.432c1.422.833 3.066.837 4.496.009a.5.5 0 0 1 .751.433l.001 1.184a.498.498 0 0 1-.063.244l-2.496 4.473a.5.5 0 0 1-.437.255zm-2.004-5.094 2.003 3.57 1.997-3.579v-.254a5.314 5.314 0 0 1-4-.006v.269z"/><path class="st1" d="M62 20a.5.5 0 0 1-.5-.5v-3.89c0-.782-.46-1.497-1.173-1.821l-4.043-1.838a.5.5 0 0 1 .414-.91l4.043 1.838A3.008 3.008 0 0 1 62.5 15.61v3.89a.5.5 0 0 1-.5.5zM45.995 20a.5.5 0 0 1-.5-.5v-3.889c0-1.174.691-2.247 1.761-2.732l4.028-1.829a.5.5 0 0 1 .414.911l-4.029 1.83a2.005 2.005 0 0 0-1.174 1.821V19.5a.5.5 0 0 1-.5.5z"/><g><path class="st1" d="M53.995 19.968a.5.5 0 0 1-.5-.5v-3.5a.5.5 0 0 1 1 0v3.5a.5.5 0 0 1-.5.5z"/></g><g><path class="st1" d="M58.5 36h-10a.5.5 0 0 1 0-1h10a.5.5 0 0 1 0 1z"/></g><g><path class="st1" d="M61.5 36h-1a.5.5 0 0 1 0-1h1a.5.5 0 0 1 0 1z"/></g><g><path class="st1" d="M15.5 36h-10a.5.5 0 0 1 0-1h10a.5.5 0 0 1 0 1z"/></g><g><path class="st1" d="M3.5 36h-1a.5.5 0 0 1 0-1h1a.5.5 0 0 1 0 1z"/></g></svg>