<svg xmlns="http://www.w3.org/2000/svg" width="128" height="128"><path d="M124 48.418h-12.758a49.379 49.379 0 0 0-12.355-19.79c-.017-.029-.028-.06-.047-.087a1.727 1.727 0 0 0-.59-.541 49.523 49.523 0 0 0-68.5 0 1.721 1.721 0 0 0-.591.538c-.019.027-.03.058-.047.087a49.379 49.379 0 0 0-12.355 19.79H4a1.75 1.75 0 0 0-1.75 1.75v27.667A1.75 1.75 0 0 0 4 79.582h12.758a49.379 49.379 0 0 0 12.355 19.79c.017.029.028.06.047.087a1.734 1.734 0 0 0 .59.537 49.521 49.521 0 0 0 68.5 0 1.73 1.73 0 0 0 .591-.538c.019-.027.03-.058.047-.087a49.379 49.379 0 0 0 12.355-19.79H124a1.75 1.75 0 0 0 1.75-1.75V50.168a1.75 1.75 0 0 0-1.75-1.75zm-16.455 0H81.85c-.435-3.644-1.006-7.059-1.7-10.214a53.462 53.462 0 0 0 16.95-6.428 45.931 45.931 0 0 1 10.445 16.642zM64 17.75c4.555 0 8.959 6.919 11.853 17.693A77.555 77.555 0 0 1 64 36.34a77.555 77.555 0 0 1-11.853-.9C55.041 24.669 59.445 17.75 64 17.75zM48.668 34.807a50.958 50.958 0 0 1-15.13-5.527 46.649 46.649 0 0 1 22.7-10.859c-3.056 3.515-5.658 9.131-7.57 16.386zM71.76 18.421a46.649 46.649 0 0 1 22.7 10.859 50.961 50.961 0 0 1-15.129 5.527c-1.911-7.255-4.513-12.871-7.571-16.386zM64 39.84a80.529 80.529 0 0 0 12.689-.993c.663 2.972 1.216 6.18 1.636 9.571h-28.65c.42-3.391.973-6.6 1.636-9.571A80.529 80.529 0 0 0 64 39.84zm-33.1-8.064A53.462 53.462 0 0 0 47.849 38.2c-.693 3.155-1.264 6.57-1.7 10.214H20.455A45.931 45.931 0 0 1 30.9 31.776zM5.75 51.918H90.865v24.164H5.75zM64 110.25c-4.555 0-8.959-6.919-11.853-17.693a78.762 78.762 0 0 1 23.706 0C72.959 103.331 68.555 110.25 64 110.25zm15.333-17.057a50.961 50.961 0 0 1 15.129 5.527 46.649 46.649 0 0 1-22.7 10.859c3.056-3.515 5.658-9.131 7.571-16.386zM56.24 109.579a46.649 46.649 0 0 1-22.7-10.859 50.958 50.958 0 0 1 15.13-5.527c1.91 7.255 4.512 12.871 7.57 16.386zM64 88.16a80.529 80.529 0 0 0-12.689.993 101.311 101.311 0 0 1-1.636-9.571h28.65c-.42 3.391-.973 6.6-1.636 9.571A80.529 80.529 0 0 0 64 88.16zm-43.545-8.578h25.7c.435 3.644 1.006 7.059 1.7 10.214A53.462 53.462 0 0 0 30.9 96.224a45.931 45.931 0 0 1-10.445-16.642zM97.1 96.224A53.462 53.462 0 0 0 80.151 89.8c.693-3.155 1.264-6.57 1.7-10.214h25.7A45.931 45.931 0 0 1 97.1 96.224zm25.15-20.142H94.365V51.918h27.885z"/><path d="M33.194 56.312a1.746 1.746 0 0 0-2.149 1.227l-1.891 6.919-2.792-7.1a1.751 1.751 0 0 0-3.258 0l-2.791 7.1-1.891-6.919a1.75 1.75 0 0 0-3.377.922l3.279 12a1.751 1.751 0 0 0 3.318.18l3.091-7.861 3.092 7.861a1.751 1.751 0 0 0 1.628 1.109h.1a1.753 1.753 0 0 0 1.594-1.287l3.279-12a1.75 1.75 0 0 0-1.232-2.151zM56.769 56.312a1.747 1.747 0 0 0-2.15 1.227l-1.89 6.919-2.792-7.1a1.751 1.751 0 0 0-3.258 0l-2.792 7.1L42 57.539a1.75 1.75 0 0 0-3.377.922l3.279 12a1.751 1.751 0 0 0 3.318.18l3.092-7.861 3.088 7.861a1.752 1.752 0 0 0 1.628 1.109h.1a1.752 1.752 0 0 0 1.594-1.287l3.279-12a1.75 1.75 0 0 0-1.232-2.151zM80.343 56.312a1.747 1.747 0 0 0-2.15 1.227L76.3 64.458l-2.792-7.1a1.751 1.751 0 0 0-3.258 0l-2.792 7.1-1.888-6.919a1.75 1.75 0 0 0-3.377.922l3.28 12a1.751 1.751 0 0 0 1.593 1.287 1.776 1.776 0 0 0 1.724-1.107l3.092-7.861 3.092 7.861A1.75 1.75 0 0 0 76.6 71.75h.095a1.752 1.752 0 0 0 1.594-1.287l3.279-12a1.75 1.75 0 0 0-1.225-2.151zM106.469 54.973a7.321 7.321 0 1 0 3.782 13.578l4.274 4.274A1.75 1.75 0 1 0 117 70.35l-4.274-4.274a7.306 7.306 0 0 0-6.257-11.1zm-3.821 7.321a3.821 3.821 0 1 1 3.821 3.821 3.826 3.826 0 0 1-3.821-3.821z"/></svg>