<svg xmlns="http://www.w3.org/2000/svg" width="128" height="128" xml:space="preserve"><path fill="#282D33" d="M63.999 128c-30.037 0-54.475-24.39-54.475-54.369V0h108.951v73.631C118.476 103.61 94.037 128 63.999 128zM13.524 4v69.631c0 27.773 22.643 50.369 50.475 50.369 27.833 0 50.477-22.596 50.477-50.369V4H13.524z"/><path fill="#282D33" d="M63.999 108.753c-20.171 0-36.582-16.379-36.582-36.512V19.247h73.163v52.994c0 20.133-16.41 36.512-36.581 36.512zM31.417 23.247v48.994c0 17.927 14.616 32.512 32.582 32.512 17.965 0 32.581-14.585 32.581-32.512V23.247H31.417z"/><path fill="#282D33" d="m44.083 101.309-1.873-3.534 18.757-9.943v-5.196L47.125 72.59l4.886-24.175-14.598-6.165 1.556-3.684 17.61 7.435-5.024 24.862 13.412 9.734v9.641z"/><path fill="#282D33" d="M81.851 101.309 60.967 90.238v-9.641l13.411-9.734-5.024-24.861 17.609-7.436 1.557 3.684-14.598 6.166 4.886 24.174-13.841 10.046v5.196l18.757 9.943z"/><path fill="#282D33" d="M50.048 69.727h25.838v4H50.048zM77.763 78.828h3.441v4h-3.441zM82.065 85.866h3.442v4h-3.442zM71.226 82.775h3.44v4h-3.44zM44.04 78.829h3.44v4h-3.44zM39.736 85.867h3.442v4h-3.442zM50.578 82.775h3.441v4h-3.441z"/><g><path fill="#282D33" d="M61.999 114.563h4v11.438h-4z"/></g><g><path fill="#282D33" d="M61.999 2.603h4v11.436h-4z"/></g><g><path fill="#282D33" d="m11.66 26.587 11.73 5.152-1.608 3.662-11.73-5.151z"/></g><g><path fill="#282D33" d="m116.479 26.591 1.607 3.662-11.73 5.148-1.607-3.662z"/></g><g><path fill="#282D33" d="M9.714 68.02h11.46v4H9.714z"/></g><g><path fill="#282D33" d="m35.328 102.205 1.96 3.486-11.493 6.464-1.96-3.487z"/></g><g><path fill="#282D33" d="m91.745 102.209 11.493 6.466-1.962 3.486-11.492-6.466z"/></g><g><path fill="#282D33" d="M106.822 69.224h11.461v4h-11.461z"/></g></svg>