
<?xml version="1.0" encoding="UTF-8"?>
<svg xmlns="http://www.w3.org/2000/svg" xmlns:xlink="http://www.w3.org/1999/xlink" width="381px" height="391px" viewBox="0 0 191 196" version="1.1">
<g id="surface1">
<path style="fill-rule:nonzero;fill:rgb(3.921569%,40.000001%,76.078433%);fill-opacity:1;stroke-width:1;stroke-linecap:butt;stroke-linejoin:miter;stroke:rgb(0%,0%,0%);stroke-opacity:1;stroke-miterlimit:4;" d="M 82.077792 128.952214 L 463.79466 128.952214 L 463.79466 519.967799 L 82.077792 519.967799 Z M 82.077792 128.952214 " transform="matrix(0.501312,0,0,0.501279,-41.142703,-64.644914)"/>
<path style=" stroke:none;fill-rule:nonzero;fill:rgb(100%,100%,100%);fill-opacity:1;" d="M 40.992188 173.09375 L 55.644531 173.09375 C 57.664062 173.09375 59.304688 171.453125 59.304688 169.433594 L 59.304688 105.398438 C 59.304688 103.378906 57.664062 101.742188 55.644531 101.742188 L 40.992188 101.742188 C 38.972656 101.742188 37.332031 103.378906 37.332031 105.398438 L 37.332031 169.433594 C 37.332031 171.453125 38.972656 173.09375 40.992188 173.09375 Z M 40.992188 173.09375 "/>
<path style=" stroke:none;fill-rule:nonzero;fill:rgb(99.607843%,99.607843%,99.607843%);fill-opacity:1;" d="M 40.992188 90.484375 L 55.644531 90.484375 C 57.664062 90.484375 59.304688 88.84375 59.304688 86.824219 L 59.304688 73.816406 C 59.304688 71.792969 57.664062 70.15625 55.644531 70.15625 L 40.992188 70.15625 C 38.972656 70.15625 37.332031 71.792969 37.332031 73.816406 L 37.332031 86.824219 C 37.332031 88.84375 38.972656 90.484375 40.992188 90.484375 Z M 40.992188 90.484375 "/>
<path style=" stroke:none;fill-rule:nonzero;fill:rgb(100%,100%,100%);fill-opacity:1;" d="M 144.515625 109.167969 C 142.457031 106.457031 139.421875 104.230469 135.410156 102.484375 C 131.394531 100.738281 126.964844 99.863281 122.117188 99.863281 C 112.277344 99.863281 103.9375 103.621094 97.101562 111.132812 C 95.742188 112.625 94.753906 112.300781 94.753906 110.277344 L 94.753906 105.398438 C 94.753906 103.378906 93.113281 101.742188 91.09375 101.742188 L 78.003906 101.742188 C 75.984375 101.742188 74.347656 103.378906 74.347656 105.398438 L 74.347656 169.433594 C 74.347656 171.453125 75.984375 173.09375 78.003906 173.09375 L 92.65625 173.09375 C 94.675781 173.09375 96.316406 171.453125 96.316406 169.433594 L 96.316406 147.164062 C 96.316406 137.886719 96.875 131.527344 97.996094 128.089844 C 99.117188 124.648438 101.1875 121.886719 104.210938 119.800781 C 107.234375 117.714844 110.648438 116.671875 114.453125 116.671875 C 117.425781 116.671875 119.964844 117.402344 122.078125 118.863281 C 124.1875 120.324219 125.714844 122.367188 126.652344 125 C 127.589844 127.632812 128.058594 133.429688 128.058594 142.394531 L 128.058594 169.433594 C 128.058594 171.453125 129.699219 173.09375 131.71875 173.09375 L 146.371094 173.09375 C 148.390625 173.09375 150.027344 171.453125 150.027344 169.433594 L 150.027344 133.171875 C 150.027344 126.757812 149.625 121.835938 148.816406 118.394531 C 148.011719 114.953125 146.578125 111.878906 144.515625 109.167969 Z M 144.515625 109.167969 "/>
<path style=" stroke:none;fill-rule:nonzero;fill:rgb(100%,100%,100%);fill-opacity:1;" d="M 147.09375 20.117188 L 126.746094 20.117188 L 126.746094 91.320312 L 147.09375 91.320312 Z M 147.09375 20.117188 "/>
<path style=" stroke:none;fill-rule:nonzero;fill:rgb(100%,100%,100%);fill-opacity:1;" d="M 96.226562 40.460938 L 116.574219 40.460938 L 116.574219 91.320312 L 96.226562 91.320312 Z M 96.226562 40.460938 "/>
<path style=" stroke:none;fill-rule:nonzero;fill:rgb(100%,100%,100%);fill-opacity:1;" d="M 65.710938 60.804688 L 86.054688 60.804688 L 86.054688 91.320312 L 65.710938 91.320312 Z M 65.710938 60.804688 "/>
</g>
</svg>
