
<?xml version="1.0" encoding="utf-8"?>
<!-- Uploaded to: SVG Repo, www.svgrepo.com, Generator: SVG Repo Mixer Tools -->
<svg width="800px" height="800px" viewBox="0 0 1024 1024" class="icon"  version="1.1" xmlns="http://www.w3.org/2000/svg"><path d="M513.59744 527.43168m-448.36352 0a448.36352 448.36352 0 1 0 896.72704 0 448.36352 448.36352 0 1 0-896.72704 0Z" fill="#fdd207" /><path d="M513.59744 985.06752c-252.34432 0-457.62048-205.29152-457.62048-457.63072s205.27616-457.63072 457.62048-457.63072 457.62048 205.29152 457.62048 457.63072-205.27616 457.63072-457.62048 457.63072z m0-896.72704c-242.11968 0-439.10144 196.97664-439.10144 439.09632s196.98176 439.09632 439.10144 439.09632 439.10144-196.97664 439.10144-439.09632-196.98176-439.09632-439.10144-439.09632z" fill="#6C0000" /><path d="M805.00736 134.00064c25.91744 17.37216 35.79392 48.07168 22.05184 68.57216l-104.03328 155.21792c-13.74208 20.50048-45.89056 23.03488-71.808 5.66272-25.91744-17.37216-35.79392-48.07168-22.05184-68.57216l104.03328-155.21792c13.73696-20.50048 45.89056-23.03488 71.808-5.66272z" fill="#FFC700" /><path d="M687.42144 384.26112c-14.06976 0-28.75904-4.6592-41.36448-13.1072-30.11584-20.19328-41.1392-56.72448-24.58112-81.4336l104.04352-155.21792c9.0624-13.53728 24.85248-21.2992 43.27936-21.2992 14.06976 0 28.75904 4.65408 41.36448 13.1072 30.1312 20.19328 41.15456 56.71936 24.59648 81.42848L730.71616 362.9568c-9.0624 13.53728-24.85248 21.30432-43.29472 21.30432z m81.37216-252.52352c-12.15488 0-22.31808 4.76672-27.89888 13.0816l-104.04352 155.21792c-10.85952 16.22528-2.10944 41.22112 19.51232 55.72096 20.76672 13.9264 48.60416 12.33408 58.96704-3.1232l104.04352-155.21792c10.85952-16.22016 2.10944-41.216-19.52768-55.71584-9.58976-6.43072-20.61824-9.96352-31.0528-9.96352z" fill="#6C0000" /><path d="M795.50464 143.90272m-114.67264 0a114.67264 114.67264 0 1 0 229.34528 0 114.67264 114.67264 0 1 0-229.34528 0Z" fill="#FFEC43" /><path d="M795.50464 267.83744c-68.34688 0-123.93472-55.59296-123.93472-123.93472s55.58784-123.93984 123.93472-123.93984 123.93472 55.6032 123.93472 123.93984-55.59296 123.93472-123.93472 123.93472z m0-229.34016c-58.12224 0-105.41568 47.2832-105.41568 105.40544s47.29344 105.40032 105.41568 105.40032 105.41568-47.27808 105.41568-105.40032-47.29856-105.40544-105.41568-105.40544z" fill="#6B0204" /><path d="M829.0816 45.27104c33.63328 17.08544 47.86688 57.0368 43.38688 96.82944-9.77408 86.84544-113.42848 96.21504-123.82208 92.75904a104.24832 104.24832 0 0 0 47.36 11.32032c57.45152 0 104.02304-46.17216 104.02304-103.13216 0-45.4912-29.71648-84.07552-70.94784-97.77664z" fill="#fdd207" /><path d="M224.87552 589.08672m-20.51584 0a20.51584 20.51584 0 1 0 41.03168 0 20.51584 20.51584 0 1 0-41.03168 0Z" fill="#FFEB43" /><path d="M224.88064 617.32352a28.26752 28.26752 0 0 1-28.24704-28.23168 28.27264 28.27264 0 0 1 28.24704-28.2368 28.26752 28.26752 0 0 1 28.23168 28.2368 28.2624 28.2624 0 0 1-28.23168 28.23168z m0-41.02656a12.81536 12.81536 0 0 0-12.80512 12.79488 12.8 12.8 0 0 0 25.59488 0 12.8 12.8 0 0 0-12.78976-12.79488z" fill="#6B0306" /><path d="M460.88192 825.09312m-27.9552 0a27.9552 27.9552 0 1 0 55.9104 0 27.9552 27.9552 0 1 0-55.9104 0Z" fill="#FFEB43" /><path d="M460.88704 863.56992c-21.23264 0-38.49216-17.25952-38.49216-38.47168 0-21.21728 17.25952-38.4768 38.49216-38.4768 21.21216 0 38.47168 17.25952 38.47168 38.4768 0 21.21216-17.25952 38.47168-38.47168 38.47168z m0-55.90528a17.46432 17.46432 0 0 0-17.44896 17.4336c0 9.60512 7.82848 17.42848 17.44896 17.42848s17.42848-7.82336 17.42848-17.42848a17.43872 17.43872 0 0 0-17.42848-17.4336z" fill="#6B0306" /><path d="M842.64448 518.69696m-16.69632 0a16.69632 16.69632 0 1 0 33.39264 0 16.69632 16.69632 0 1 0-33.39264 0Z" fill="#FFEB43" /><path d="M842.64448 543.11424c-13.4656 0-24.41728-10.9568-24.41728-24.41728s10.94656-24.41728 24.41728-24.41728c13.4656 0 24.41728 10.9568 24.41728 24.41728a24.448 24.448 0 0 1-24.41728 24.41728z m0-33.39264c-4.94592 0-8.97536 4.02432-8.97536 8.97536 0 4.94592 4.02432 8.97536 8.97536 8.97536 4.94592 0 8.97536-4.02432 8.97536-8.97536a8.99072 8.99072 0 0 0-8.97536-8.97536z" fill="#6B0306" /><path d="M295.4496 364.0576m-9.39008 0a9.39008 9.39008 0 1 0 18.78016 0 9.39008 9.39008 0 1 0-18.78016 0Z" fill="#FFEB43" /><path d="M295.44448 381.16864a17.1264 17.1264 0 0 1-17.1008-17.11104 17.1264 17.1264 0 0 1 17.1008-17.11616 17.13152 17.13152 0 0 1 17.11616 17.11616 17.13152 17.13152 0 0 1-17.11616 17.11104z" fill="#6B0306" /><path d="M811.47392 687.53408m-9.39008 0a9.39008 9.39008 0 1 0 18.78016 0 9.39008 9.39008 0 1 0-18.78016 0Z" fill="#FFEB43" /><path d="M811.47392 704.65024a17.13152 17.13152 0 0 1-17.11616-17.11616c0-9.43104 7.67488-17.11104 17.11616-17.11104s17.11616 7.67488 17.11616 17.11104-7.67488 17.11616-17.11616 17.11616z" fill="#6B0306" /></svg>