<svg xmlns="http://www.w3.org/2000/svg" viewBox="0 0 256 256" xml:space="preserve"><path fill="#F0C020" d="M19.213 231.971V17.309a6.72 6.72 0 0 0-13.44 0v221.382a6.72 6.72 0 0 0 6.72 6.72h231.014a6.72 6.72 0 0 0 0-13.44H19.213z"/><circle fill="#FFB69F" cx="130.107" cy="95.292" r="13"/><path fill="#FC5D3D" d="m209.847 22.603-10.62 26.99-3.33-7.66-21.8 9.48a6.431 6.431 0 0 0-5.34-2.82c-3.58 0-6.48 2.9-6.48 6.48v1.47l-61.83 26.88c-.582-2.98-3.232-5.22-6.36-5.22-3.58 0-6.48 2.9-6.48 6.48v4.32l-68.39 29.73v-21.89l168.67-73.32-5.02-11.54 26.98 10.62z"/><path fill="#7D7B79" d="M187.777 167.074v55.732a9.168 9.168 0 0 1-9.168 9.168h-.005a9.168 9.168 0 0 1-9.168-9.168v-44.392a3 3 0 0 0-3-3h-33.33l-8.118 23.783a10.002 10.002 0 0 1-3.445 4.755l-32.791 25.939a9.168 9.168 0 1 1-11.036-14.642l27.299-21.795a9.98 9.98 0 0 0 3.67-5.53l4.92-19.34v-11.51h64.17c5.524 0 10.002 4.477 10.002 10z"/><path fill="#FFB69F" d="M100.567 84.683v11.98l-12.96 5.63v-17.61c0-3.58 2.9-6.48 6.48-6.48 3.13 0 5.78 2.24 6.36 5.22.08.41.12.83.12 1.26zM175.237 55.073v9.13l-12.96 5.63v-14.76c0-3.58 2.9-6.48 6.48-6.48 2.22 0 4.18 1.11 5.34 2.82.72 1.04 1.14 2.3 1.14 3.66z"/><path fill="#72C2E9" d="M175.237 64.203v33.56c0 3.98-2.36 7.59-6.01 9.17l-13.12 5.7v44.441h-42.5v-25.961l-12.01 5.23c-6.61 2.87-13.99-1.97-13.99-9.17v-24.88l12.96-5.63v25.64l61.71-26.83v-25.64l12.96-5.63z"/><path fill="#F0C020" d="M88.753 157.071c-3.683-1.217-7.487-2.281-9.623-11.48-1.967 8.473-5.118 9.992-9.623 11.48 7.347 2.428 8.455 6.447 9.623 11.48 2.013-8.676 5.343-10.066 9.623-11.48zM213.419 76.296c-3.683-1.217-7.487-2.281-9.623-11.48-1.967 8.473-5.118 9.992-9.623 11.48 7.347 2.428 8.455 6.447 9.623 11.48 2.014-8.676 5.344-10.066 9.623-11.48zM202.302 122.183c-3.683-1.217-7.487-2.281-9.623-11.481-1.967 8.473-5.118 9.992-9.623 11.481 7.347 2.428 8.455 6.447 9.623 11.481 2.014-8.677 5.344-10.067 9.623-11.481z"/><path fill="#FC5D3D" d="m209.847 22.603-10.62 26.99-3.33-7.66-21.8 9.48a6.431 6.431 0 0 0-5.34-2.82c-3.58 0-6.48 2.9-6.48 6.48v1.47l-61.83 26.88c-.582-2.98-3.232-5.22-6.36-5.22-3.58 0-6.48 2.9-6.48 6.48v4.32l-68.39 29.73v-21.89l168.67-73.32-5.02-11.54 26.98 10.62z"/><path d="M76.72 169.111c-1.067-4.599-1.771-7.637-7.989-9.691-2.259-.746-2.254-3.952 0-4.697 3.743-1.237 6.216-2.054 7.989-9.692.589-2.538 4.228-2.545 4.818 0 1.813 7.811 4.522 8.549 7.989 9.691 2.259.746 2.254 3.952 0 4.697-3.609 1.192-6.218 2.054-7.989 9.691-.591 2.551-4.225 2.551-4.818.001zm-1.413-11.983c1.78 1.222 2.996 2.618 3.872 4.094 1.061-1.875 2.29-3.166 3.659-4.128-1.313-.939-2.583-2.269-3.699-4.279-1.103 1.984-2.392 3.325-3.832 4.313zM201.387 88.335c-1.067-4.599-1.771-7.637-7.989-9.691-2.259-.746-2.254-3.952 0-4.697 3.743-1.237 6.216-2.054 7.989-9.692.589-2.538 4.228-2.545 4.818 0 1.813 7.811 4.522 8.549 7.989 9.691 2.259.746 2.254 3.952 0 4.697-3.609 1.192-6.218 2.054-7.989 9.691-.591 2.551-4.225 2.552-4.818.001zm-1.413-11.983c1.78 1.222 2.996 2.618 3.872 4.094 1.061-1.875 2.29-3.166 3.659-4.128-1.312-.939-2.583-2.269-3.699-4.279-1.104 1.985-2.392 3.325-3.832 4.313zM190.27 134.222c-1.067-4.599-1.771-7.637-7.989-9.691-2.259-.746-2.254-3.952 0-4.697 3.743-1.237 6.216-2.054 7.989-9.692.589-2.538 4.228-2.545 4.818 0 1.813 7.811 4.522 8.549 7.989 9.691 2.259.746 2.254 3.952 0 4.697-3.609 1.192-6.218 2.054-7.989 9.691-.591 2.551-4.225 2.552-4.818.001zm-1.413-11.983c1.78 1.222 2.996 2.618 3.872 4.094 1.061-1.875 2.29-3.166 3.659-4.128-1.312-.939-2.583-2.269-3.699-4.279-1.103 1.985-2.392 3.325-3.832 4.313z"/><path fill="#C5E5FE" d="M146.773 150.273a2.5 2.5 0 0 1-2.5-2.5v-2.847a2.5 2.5 0 1 1 5 0v2.847a2.5 2.5 0 0 1-2.5 2.5zm0-12.846a2.5 2.5 0 0 1-2.5-2.5v-17a2.5 2.5 0 1 1 5 0v17a2.5 2.5 0 0 1-2.5 2.5z"/><path fill="#FFCBC3" d="M25.574 100.494a2.5 2.5 0 0 1 1.316-3.282l4.038-1.727A2.504 2.504 0 0 1 34.21 96.8a2.5 2.5 0 0 1-1.316 3.282l-4.038 1.727a2.5 2.5 0 0 1-3.282-1.315zm13.233-5.659a2.5 2.5 0 0 1 1.316-3.282l143.433-61.341a2.5 2.5 0 0 1 1.967 4.597L42.088 96.15a2.499 2.499 0 0 1-3.281-1.315z"/><path fill="#EFEFEF" d="M179.106 223.494a2.5 2.5 0 0 1-2.5-2.5v-5.999a2.5 2.5 0 1 1 5 0v5.999a2.5 2.5 0 0 1-2.5 2.5zm0-15.999a2.5 2.5 0 0 1-2.5-2.5v-36.584h-12.273a2.5 2.5 0 1 1 0-5h12.773c2.481 0 4.5 2.019 4.5 4.5v37.084a2.5 2.5 0 0 1-2.5 2.5z"/><path fill="#C5E5FE" d="M146.773 150.273a2.5 2.5 0 0 1-2.5-2.5v-2.847a2.5 2.5 0 1 1 5 0v2.847a2.5 2.5 0 0 1-2.5 2.5zm0-12.846a2.5 2.5 0 0 1-2.5-2.5v-17a2.5 2.5 0 1 1 5 0v17a2.5 2.5 0 0 1-2.5 2.5z"/><path fill="#FFCBC3" d="M25.574 100.494a2.5 2.5 0 0 1 1.316-3.282l4.038-1.727A2.504 2.504 0 0 1 34.21 96.8a2.5 2.5 0 0 1-1.316 3.282l-4.038 1.727a2.5 2.5 0 0 1-3.282-1.315zm13.233-5.659a2.5 2.5 0 0 1 1.316-3.282l143.433-61.341a2.5 2.5 0 0 1 1.967 4.597L42.088 96.15a2.499 2.499 0 0 1-3.281-1.315z"/><path fill="#EFEFEF" d="M179.106 223.494a2.5 2.5 0 0 1-2.5-2.5v-5.999a2.5 2.5 0 1 1 5 0v5.999a2.5 2.5 0 0 1-2.5 2.5zm0-15.999a2.5 2.5 0 0 1-2.5-2.5v-36.584h-12.273a2.5 2.5 0 1 1 0-5h12.773c2.481 0 4.5 2.019 4.5 4.5v37.084a2.5 2.5 0 0 1-2.5 2.5z"/><path d="M243.51 229.47H226.6v-4.72c0-1.37-1.12-2.5-2.49-2.5-1.38 0-2.5 1.13-2.5 2.5v4.72h-33.44a11.615 11.615 0 0 0 2.11-6.66v-55.74c-.011-6.89-5.61-12.489-12.511-12.5h-19.161l-.009-40.3 11.62-5.04a12.483 12.483 0 0 0 7.521-11.47V55.07c0-.808-.124-1.6-.335-2.367L194.6 45.22l2.33 5.37c.9 2.045 3.81 1.977 4.62-.08l10.62-26.99a2.491 2.491 0 0 0-1.41-3.239L183.78 9.66c-2.006-.806-4.104 1.241-3.211 3.319l4.03 9.25L104 57.26a2.503 2.503 0 0 0-1.29 3.29c.504 1.178 1.906 1.861 3.29 1.3 0 0 0-.01.01-.01l82.87-36.021a2.5 2.5 0 0 0 1.3-3.289l-2.62-6.011 19.04 7.49-7.49 19.05-.92-2.12c-.54-1.229-2.05-1.84-3.29-1.3l-20.136 8.757a8.95 8.95 0 0 0-6.004-2.307c-4.892 0-8.878 3.938-8.971 8.809L101.81 80.104a9.035 9.035 0 0 0-7.721-4.403c-4.95 0-8.98 4.029-8.98 8.979v2.682L21.72 114.92V98.48l65.94-28.66c1.254-.554 1.847-2.032 1.29-3.289-.54-1.23-2.05-1.83-3.29-1.301L21.71 93.032V17.31c0-5.08-4.13-9.22-9.22-9.22-5.08 0-9.22 4.14-9.22 9.22v221.38c0 5.08 4.14 9.221 9.22 9.221h192.28a2.5 2.5 0 0 0 0-5H12.49c-2.32 0-4.21-1.9-4.22-4.221V17.31c.01-2.319 1.9-4.22 4.22-4.22s4.22 1.9 4.22 4.22v214.66c0 1.393 1.135 2.5 2.5 2.5h224.3c2.32.01 4.21 1.9 4.22 4.22-.01 2.32-1.899 4.221-4.22 4.221h-18.74a2.5 2.5 0 0 0 0 5h18.74c5.08 0 9.21-4.141 9.21-9.221s-4.13-9.22-9.21-9.22zm-75.281-124.83-13.12 5.7c-.909.39-1.5 1.29-1.5 2.29v41.939h-37.5v-23.46c0-1.742-1.794-3.019-3.5-2.29l-12.01 5.23c-4.973 2.175-10.49-1.524-10.49-6.88v-23.237c2.255-.981.67-.294 7.96-3.453v21.82c0 1.835 1.886 2.996 3.49 2.3l61.709-26.83c.92-.399 1.5-1.3 1.5-2.3V71.478l7.96-3.458.011 29.739a7.482 7.482 0 0 1-4.51 6.881zm-8.449-10.81-15.049 6.544c.557-1.595.876-3.301.878-5.084-.01-8.54-6.96-15.5-15.5-15.5-8.549 0-15.5 6.96-15.5 15.5 0 6.319 3.802 11.755 9.235 14.167l-20.775 9.034V85.012l56.71-24.663c.001 19.151.001-15.668.001 33.481zm-29.671 11.96c-5.78-.01-10.49-4.721-10.5-10.5.01-5.78 4.72-10.49 10.5-10.5 5.78.01 10.49 4.72 10.5 10.5-.009 5.779-4.719 10.49-10.5 10.5zm34.671-50.721c0-2.189 1.789-3.97 3.979-3.979 2.283 0 3.952 1.854 3.98 3.979v7.49l-7.96 3.46v-10.95zM90.11 84.68c0-2.189 1.79-3.97 3.98-3.979h.02c2.083 0 3.96 1.731 3.96 3.979v10.34l-7.96 3.46v-13.8zm-68.4 35.687 63.4-27.56v34.363c0 8.992 9.205 15.04 17.48 11.47l8.52-3.71v33.33l-3.71 14.58a2.5 2.5 0 0 0 1.81 3.04c1.31.34 2.7-.49 3.04-1.8l3.78-14.891.07-.609v-9.011h61.67c4.13.011 7.5 3.381 7.511 7.5v55.74c-.01 3.474-2.745 6.66-6.864 6.66-3.576-.108-6.477-3.052-6.477-6.66V178.41c-.01-3.03-2.47-5.5-5.5-5.5h-33.33c-1.069 0-2.02.68-2.369 1.689l-8.121 23.79a7.495 7.495 0 0 1-2.58 3.57l-32.79 25.939a6.667 6.667 0 0 1-9.34-1.319 6.652 6.652 0 0 1 1.31-9.33l20.61-16.46a2.497 2.497 0 0 0 .4-3.51c-.83-1.04-2.48-1.23-3.52-.391l-20.52 16.38c-4.928 3.722-6.247 10.886-2.36 16.2H62.18v-4.72c0-1.37-1.13-2.5-2.51-2.5-1.37 0-2.49 1.13-2.49 2.5v4.72H21.71V120.367zm92.78 101.883c-1.37 0-2.5 1.13-2.5 2.5v4.72H93.319l29.731-23.52c2-1.511 3.49-3.57 4.31-5.94l7.54-22.1h31.54c.271 0 .5.229.5.5v44.399c0 2.476.781 4.77 2.102 6.66H116.99v-4.72a2.507 2.507 0 0 0-2.5-2.499z"/><circle cx="214.77" cy="245.41" r="2.5"/><path d="M94.83 61.25a2.502 2.502 0 0 0-1.29 3.29 2.493 2.493 0 0 0 3.29 1.29 2.498 2.498 0 0 0 1.29-3.29c-.53-1.221-2.05-1.83-3.29-1.29zM107.81 194.33c.98-.98.98-2.561.01-3.54-.94-.94-2.58-.95-3.52-.01-.01 0-.01 0-.01.01-.98.97-.98 2.55-.01 3.529a2.486 2.486 0 0 0 3.53.011z"/></svg>