<svg xmlns="http://www.w3.org/2000/svg" xml:space="preserve" width="655.359" height="655.359" style="shape-rendering:geometricPrecision;text-rendering:geometricPrecision;image-rendering:optimizeQuality;fill-rule:evenodd;clip-rule:evenodd" viewBox="0 0 6.827 6.827"><defs><style>.fil0{fill:none}</style></defs><g id="Layer_x0020_1"><g id="_274867312"><path id="_274867192" class="fil0" d="M0 0h6.827v6.827H0z"/><path id="_274866760" class="fil0" d="M.853.853h5.12v5.12H.853z"/></g><path style="fill:#e6e6e7" d="M1.39 2.842 3.412 1.04l2.024 1.872v2.649H1.39z"/><path style="fill:#d7d7d7" d="M3.803 2.005v.78H3.023v-.78z"/><path d="M3.38 3.203a.614.614 0 0 1 .616.615.614.614 0 0 1-.616.616h.851a.18.18 0 0 1 .12.045c.034.03.055.074.055.122v1.206a.162.162 0 0 1-.055.121.18.18 0 0 1-.12.045H2.53a.18.18 0 0 1-.12-.045.162.162 0 0 1-.055-.121V4.6c0-.048.021-.091.056-.122a.18.18 0 0 1 .119-.045h.851a.614.614 0 0 1-.616-.616.614.614 0 0 1 .616-.615z" style="fill:#797979;fill-rule:nonzero"/><path style="fill:#8b8c8c;fill-rule:nonzero" d="M.884 3.193 3.32.94l.093-.087.094.087 2.435 2.253-.187.202-2.342-2.167-2.342 2.167z"/></g></svg>