<svg xmlns="http://www.w3.org/2000/svg" viewBox="0 0 256 256" xml:space="preserve"><path fill="#CECECE" d="M32.035 209.711c-7.535 0-13.665-6.13-13.665-13.665V72.27c0-7.535 6.13-13.665 13.665-13.665h191.931c7.535 0 13.665 6.13 13.665 13.665v123.776c0 7.535-6.13 13.665-13.665 13.665H32.035z"/><path fill="#E2E2E2" d="M223.965 58.606h-14.667c7.534 0 13.665 6.13 13.665 13.665v123.776c0 7.534-6.13 13.665-13.665 13.665h14.667c7.535 0 13.665-6.13 13.665-13.665V72.27c0-7.534-6.13-13.664-13.665-13.664z"/><path fill="#AFAFAF" d="M32.035 58.606h14.667c-7.534 0-13.665 6.13-13.665 13.665v123.776c0 7.534 6.13 13.665 13.665 13.665H32.035c-7.535 0-13.665-6.13-13.665-13.665V72.27c0-7.534 6.13-13.664 13.665-13.664z"/><path fill="#63BCE7" d="M229.221 72.294v123.728a5.28 5.28 0 0 1-5.28 5.28H32.059a5.28 5.28 0 0 1-5.28-5.28V72.294a5.28 5.28 0 0 1 5.28-5.28h191.882a5.28 5.28 0 0 1 5.28 5.28z"/><path fill="#63E2E7" d="M223.941 67.014h-14.667a5.28 5.28 0 0 1 5.28 5.28v123.728a5.28 5.28 0 0 1-5.28 5.28h14.667a5.28 5.28 0 0 0 5.28-5.28V72.294a5.28 5.28 0 0 0-5.28-5.28z"/><path fill="#6377E7" d="M32.059 67.014h14.667a5.28 5.28 0 0 0-5.28 5.28v123.728a5.28 5.28 0 0 0 5.28 5.28H32.059a5.28 5.28 0 0 1-5.28-5.28V72.294a5.28 5.28 0 0 1 5.28-5.28z"/><path fill="#CECECE" d="M128 209.711H8.667l3.053 7.024a17.333 17.333 0 0 0 15.896 10.423h200.769a17.333 17.333 0 0 0 15.896-10.423l3.053-7.024H128z"/><path fill="#E2E2E2" d="m232.667 209.711-3.053 7.024a17.333 17.333 0 0 1-15.896 10.423h14.667a17.333 17.333 0 0 0 15.896-10.423l3.053-7.024h-14.667z"/><path fill="#AFAFAF" d="m23.333 209.711 3.053 7.024a17.333 17.333 0 0 0 15.896 10.423H27.615a17.333 17.333 0 0 1-15.896-10.423l-3.053-7.024h14.667z"/><path fill="#707070" d="m82.442 209.711 4.22 5.388a8.7 8.7 0 0 0 6.85 3.336h68.975a8.7 8.7 0 0 0 6.85-3.336l4.221-5.388H82.442z"/><path fill="#CECECE" d="m194.957 47.947-30.079-30.078H61.043v183.433h133.914z"/><path fill="#E2E2E2" d="M164.878 17.869h-14.667l30.079 30.078v153.355h14.667V47.947z"/><path fill="#AFAFAF" d="M61.043 17.869H75.71v183.434H61.043z"/><circle fill="#F8AF23" cx="128" cy="91.632" r="39.634"/><path fill="#3F3679" d="M146.972 91.61v13.021c0 1.015-.38 1.895-1.141 2.64-.761.746-1.663 1.119-2.707 1.119h-11.455v9.172c0 1.044-.373 1.931-1.118 2.663-.746.731-1.626 1.096-2.641 1.096-1.073 0-1.984-.365-2.729-1.096a3.588 3.588 0 0 1-1.119-2.663V108.3h-11.365c-1.015 0-1.895-.365-2.64-1.096a3.588 3.588 0 0 1-1.119-2.663c0-1.044.365-1.931 1.096-2.663.731-.73 1.618-1.096 2.663-1.096h26.578v-5.414h-26.489c-1.044 0-1.931-.358-2.662-1.074-.732-.716-1.097-1.611-1.097-2.685V78.634c0-1.044.365-1.931 1.097-2.663.73-.73 1.617-1.096 2.662-1.096h11.275v-9.173c0-1.014.351-1.895 1.052-2.641.701-.745 1.648-1.118 2.841-1.118 1.014 0 1.886.366 2.618 1.096.73.731 1.096 1.618 1.096 2.663v9.173h11.544c1.044 0 1.946.373 2.707 1.118.761.746 1.141 1.626 1.141 2.641 0 1.044-.38 1.946-1.141 2.707-.761.761-1.663 1.141-2.707 1.141h-26.578v5.369h26.489c1.044 0 1.946.374 2.707 1.119.761.746 1.142 1.626 1.142 2.64z"/><path fill="#F8AF23" d="M193.308 168.132a7.323 7.323 0 0 0-7.323 7.323v-3.33c0-4.032-3.154-7.491-7.186-7.565a7.323 7.323 0 0 0-7.46 7.322v-3.193a7.323 7.323 0 0 0-14.646 0V140.5a7.323 7.323 0 0 0-14.646 0v52.698l-9.025-9.025c-2.851-2.851-7.527-3.066-10.43-.268a7.323 7.323 0 0 0-.098 10.452l16.693 16.693a9.765 9.765 0 0 1 2.86 6.904v9.204h51.742v-7.906l3.711-6.349a22.918 22.918 0 0 0 3.131-11.562v-25.887a7.323 7.323 0 0 0-7.323-7.322z"/><g fill="#3F3679"><path d="m245.656 217.333 3.053-7.023a1.501 1.501 0 0 0-1.376-2.098h-14.351c3.722-2.766 6.148-7.182 6.148-12.165V72.271c0-8.362-6.803-15.165-15.164-15.165h-27.509v-9.158c0-.397-.158-.779-.439-1.061l-30.079-30.079a1.5 1.5 0 0 0-1.061-.439H61.043a1.5 1.5 0 0 0-1.5 1.5v39.237H32.034c-8.361 0-15.164 6.803-15.164 15.165v123.776c0 4.983 2.426 9.399 6.148 12.165H8.667a1.501 1.501 0 0 0-1.376 2.098l3.053 7.023a18.805 18.805 0 0 0 7.08 8.325H9.32a1.5 1.5 0 0 0 0 3h237.36a1.5 1.5 0 0 0 0-3h-8.104a18.798 18.798 0 0 0 7.08-8.325zm-21.69-157.228c6.707 0 12.164 5.457 12.164 12.165v123.776c0 6.708-5.457 12.165-12.164 12.165h-22.834c.516-1.759.84-3.572.951-5.409h21.859a6.787 6.787 0 0 0 6.779-6.78V72.294a6.787 6.787 0 0 0-6.779-6.779h-27.484v-5.409h27.508zm-57.588-38.616 24.958 24.958h-24.958V21.489zm30.079 47.026h27.484a3.783 3.783 0 0 1 3.779 3.779v123.729a3.784 3.784 0 0 1-3.779 3.78H202.13v-24.349c0-3.754-2.361-6.959-5.674-8.231V68.515zM62.543 19.368h100.835v28.579a1.5 1.5 0 0 0 1.5 1.5h28.579V166.64c-.05-.001-.099-.008-.149-.008a8.793 8.793 0 0 0-6.278 2.63c-1.159-3.536-4.398-6.132-8.202-6.202-2.42-.033-4.644.855-6.347 2.527a7 7 0 0 0-.149.15 8.814 8.814 0 0 0-1.803-2.988h2.133a1.5 1.5 0 0 0 0-3h-14.468v-8.839h14.468a1.5 1.5 0 0 0 0-3h-14.468v-7.41c0-4.865-3.958-8.823-8.823-8.823-4.864 0-8.822 3.958-8.822 8.823v7.41h-57.21a1.5 1.5 0 0 0 0 3h57.209v8.839H83.339a1.5 1.5 0 0 0 0 3h57.209v8.839H83.339a1.5 1.5 0 0 0 0 3h57.209v8.839h-6.15l-.315-.314c-3.472-3.475-9.095-3.601-12.531-.287-.2.192-.387.395-.566.602H83.339a1.5 1.5 0 0 0 0 3h35.95a8.838 8.838 0 0 0-.438 2.671 8.757 8.757 0 0 0 2.584 6.32l4.385 4.385H62.543V19.368zm78.005 167.059v3.149l-3.15-3.149h3.15zM32.059 199.803a3.784 3.784 0 0 1-3.779-3.78V72.294a3.783 3.783 0 0 1 3.779-3.779h27.484v131.288H32.059zm-12.189-3.756V72.271c0-6.708 5.457-12.165 12.164-12.165h27.509v5.409H32.059a6.787 6.787 0 0 0-6.779 6.779v123.729a6.787 6.787 0 0 0 6.779 6.78H128.819l5.409 5.409H32.034c-6.707 0-12.164-5.457-12.164-12.165zm117.359 15.165.898.898a8.198 8.198 0 0 1 2.352 4.824H93.513a7.16 7.16 0 0 1-5.67-2.76l-2.32-2.963H137.229zm-121.794 8.723h29.141a1.5 1.5 0 0 0 0-3H13.478c-.132-.263-.264-.525-.382-.797l-2.142-4.926h70.758l3.769 4.813a10.139 10.139 0 0 0 8.031 3.91h47.035v5.724H27.615a15.83 15.83 0 0 1-12.18-5.724zm128.113 5.723v-7.704a11.19 11.19 0 0 0-3.3-7.965l-16.692-16.692a5.78 5.78 0 0 1-1.705-4.172 5.78 5.78 0 0 1 1.783-4.14c2.269-2.19 6.005-2.075 8.328.248l9.025 9.024a1.499 1.499 0 0 0 2.561-1.061V140.5a5.83 5.83 0 0 1 5.822-5.823 5.83 5.83 0 0 1 5.823 5.823v38.149a1.5 1.5 0 0 0 3 0v-9.96a5.83 5.83 0 0 1 5.823-5.823 5.83 5.83 0 0 1 5.822 5.823v12.55a1.5 1.5 0 0 0 3 0v-9.358c0-1.575.619-3.051 1.743-4.154 1.125-1.104 2.629-1.729 4.19-1.668 3.15.058 5.713 2.778 5.713 6.065v12.518a1.5 1.5 0 0 0 3 0v-9.189a5.829 5.829 0 0 1 5.822-5.822 5.83 5.83 0 0 1 5.823 5.822v25.888c0 3.794-1.012 7.53-2.926 10.805l-3.711 6.35a1.49 1.49 0 0 0-.205.757v6.405h-48.739zm84.837 0h-33.096v-5.724h5.866a1.5 1.5 0 0 0 0-3h-4.274l1.914-3.274c.463-.792.87-1.613 1.239-2.448h45.012l-2.142 4.926c-.118.271-.25.534-.382.797h-31.099a1.5 1.5 0 0 0 0 3h29.141a15.822 15.822 0 0 1-12.179 5.723z"/><path d="M65.22 216.935H54.845a1.5 1.5 0 0 0 0 3H65.22a1.5 1.5 0 0 0 0-3zM27.323 236.632H9.32a1.5 1.5 0 0 0 0 3h18.003a1.5 1.5 0 0 0 0-3zM246.68 236.632h-18.003a1.5 1.5 0 0 0 0 3h18.003a1.5 1.5 0 0 0 0-3zM218.479 236.632H37.521a1.5 1.5 0 0 0 0 3H218.48a1.5 1.5 0 0 0-.001-3zM128 132.766c22.682 0 41.134-18.452 41.134-41.133 0-22.682-18.452-41.134-41.134-41.134S86.866 68.951 86.866 91.633c0 22.68 18.452 41.133 41.134 41.133zm0-79.267c21.027 0 38.134 17.106 38.134 38.134 0 21.026-17.106 38.133-38.134 38.133S89.866 112.66 89.866 91.633c0-21.028 17.107-38.134 38.134-38.134z"/></g></svg>  