<svg xmlns="http://www.w3.org/2000/svg" viewBox="0 0 512 512" style="enable-background:new 0 0 512 512" xml:space="preserve"><path style="fill:#00abe7" d="M402.256 463.366a40.61 40.61 0 0 0-17.425 3.905c-11.341-15.403-29.595-25.404-50.191-25.404-34.404 0-62.296 27.89-62.296 62.296h170.707c.001-22.531-18.264-40.797-40.795-40.797z"/><path style="fill:#e0e0e3" d="m336.829 470.642-81.315-118.407a32.943 32.943 0 0 1-5.788-18.65V159.357H159.82v174.226a32.938 32.938 0 0 1-5.788 18.65L72.718 470.642c-9.753 14.203.415 33.521 17.644 33.521h228.822c17.23 0 27.399-19.319 17.645-33.521z"/><path style="fill:#d2d1d3" d="M159.818 159.357h89.903v27.157h-89.903z"/><path style="fill:#e0e0e3" d="M253.621 159.357h-96.319c-5.911 0-10.702-4.792-10.702-10.702v-.602c0-5.911 4.792-10.702 10.702-10.702h96.319c5.911 0 10.702 4.792 10.702 10.702v.602c0 5.912-4.791 10.702-10.702 10.702z"/><path style="fill:#00abe7" d="M301.425 478.925H108.119c-4.591 0-7.309-5.162-4.691-8.946l11.552-16.689 2.245-3.251 12.272-17.756h25.399a33.696 33.696 0 0 1-.285-4.207c0-17.285 14.021-31.306 31.318-31.306 15.324 0 28.067 11.006 30.772 25.549 3.176-4.579 8.45-7.582 14.443-7.582 9.69 0 17.545 7.854 17.545 17.545h31.355l14.518 21.007 1.018 1.464 10.535 15.225c2.607 3.785-.086 8.947-4.69 8.947z"/><path style="fill:#009ae5" d="M301.425 478.925H108.119c-4.591 0-7.309-5.162-4.691-8.946l11.552-16.689h179.583l1.018 1.464 10.535 15.225c2.606 3.784-.087 8.946-4.691 8.946z"/><circle style="fill:#00abe7" cx="363.907" cy="364.293" r="32.528"/><path style="fill:#009ae5" d="M396.439 364.296c0 17.96-14.568 32.527-32.527 32.527-17.971 0-32.539-14.567-32.539-32.527a32.3 32.3 0 0 1 3.038-13.726c5.173 11.102 16.434 18.801 29.501 18.801 13.055 0 24.316-7.699 29.488-18.801a32.288 32.288 0 0 1 3.039 13.726z"/><circle style="fill:#00abe7" cx="166.871" cy="40.369" r="32.528"/><path style="fill:#009ae5" d="M199.4 40.373c0 17.96-14.568 32.527-32.527 32.527-17.971 0-32.539-14.567-32.539-32.527a32.3 32.3 0 0 1 3.038-13.726c5.173 11.102 16.434 18.801 29.501 18.801 13.055 0 24.316-7.699 29.488-18.801a32.267 32.267 0 0 1 3.039 13.726z"/><circle style="fill:#00abe7" cx="240.797" cy="76.946" r="23.526"/><path style="fill:#009ae5" d="M264.322 76.948c0 12.988-10.535 23.523-23.523 23.523-12.996 0-23.531-10.535-23.531-23.523 0-3.546.785-6.909 2.197-9.927 3.741 8.029 11.885 13.596 21.335 13.596 9.441 0 17.585-5.567 21.325-13.596a23.38 23.38 0 0 1 2.197 9.927z"/><path d="M402.252 455.534c-5.135 0-10.138.785-14.94 2.338-13.249-15.028-32.522-23.842-52.676-23.842a70.51 70.51 0 0 0-12.653 1.15l-43.178-62.874a7.838 7.838 0 0 0-12.921 8.872l64.485 93.9c2.903 4.228 3.21 9.463.821 14.001-2.389 4.538-6.875 7.247-12.005 7.247H90.362c-5.128 0-9.617-2.709-12.006-7.248-2.389-4.539-2.081-9.773.822-14.001l81.314-118.407a40.619 40.619 0 0 0 7.164-23.087v-72.001a7.837 7.837 0 0 0-7.837-7.837 7.837 7.837 0 0 0-7.837 7.837v72.001a25.008 25.008 0 0 1-4.412 14.215L66.257 466.204a29.167 29.167 0 0 0-1.771 30.174A29.167 29.167 0 0 0 90.362 512h352.693a7.837 7.837 0 0 0 7.837-7.837c0-26.814-21.82-48.629-48.64-48.629zm-57.167 40.793a29.166 29.166 0 0 0-1.796-30.121l-11.274-16.417c.872-.042 1.744-.085 2.621-.085 17.491 0 33.487 8.097 43.888 22.214a7.836 7.836 0 0 0 9.656 2.438 32.687 32.687 0 0 1 14.073-3.147c15.478 0 28.498 10.719 32.024 25.119l-89.192-.001z"/><path d="M272.16 148.656v-.602c0-10.222-8.316-18.539-18.539-18.539h-96.32c-10.222 0-18.539 8.316-18.539 18.539v.602c0 8.374 5.584 15.46 13.22 17.753v66.637a7.837 7.837 0 0 0 7.837 7.837 7.837 7.837 0 0 0 7.837-7.837v-65.852h74.234v166.39a40.608 40.608 0 0 0 7.163 23.087 7.828 7.828 0 0 0 6.467 3.401 7.837 7.837 0 0 0 6.453-12.273 25.009 25.009 0 0 1-4.41-14.215V166.763c8.335-1.814 14.597-9.238 14.597-18.107zm-114.858 2.865a2.868 2.868 0 0 1-2.865-2.865v-.602a2.868 2.868 0 0 1 2.865-2.865h96.32a2.868 2.868 0 0 1 2.865 2.865v.602a2.868 2.868 0 0 1-2.865 2.865h-96.32z"/><path d="M185.931 297.694h16.588c4.329 0 7.837-3.509 7.837-7.837s-3.508-7.837-7.837-7.837h-16.588c-4.329 0-7.837 3.509-7.837 7.837s3.508 7.837 7.837 7.837zM185.931 271.474h16.588c4.329 0 7.837-3.509 7.837-7.837s-3.508-7.837-7.837-7.837h-16.588c-4.329 0-7.837 3.509-7.837 7.837s3.508 7.837 7.837 7.837zM185.931 245.253h16.588a7.837 7.837 0 0 0 7.837-7.837 7.837 7.837 0 0 0-7.837-7.837h-16.588a7.837 7.837 0 0 0-7.837 7.837 7.837 7.837 0 0 0 7.837 7.837zM185.931 219.034h16.588a7.837 7.837 0 0 0 7.837-7.837 7.837 7.837 0 0 0-7.837-7.837h-16.588a7.837 7.837 0 0 0-7.837 7.837 7.837 7.837 0 0 0 7.837 7.837zM251.252 478.921a7.837 7.837 0 0 0 7.837 7.837h42.339c5.05 0 9.643-2.777 11.988-7.247a13.496 13.496 0 0 0-.854-13.983l-26.065-37.7a7.834 7.834 0 0 0-6.446-3.38h-24.756c-3.31-10.174-12.884-17.549-24.148-17.549-3.801 0-7.493.854-10.836 2.435-6.705-12.297-19.738-20.404-34.379-20.404-20.363 0-37.146 15.629-38.986 35.519H129.5a7.836 7.836 0 0 0-6.446 3.379l-26.07 37.702a13.497 13.497 0 0 0-.851 13.98 13.5 13.5 0 0 0 11.986 7.249h118.712c4.329 0 7.837-3.509 7.837-7.837s-3.508-7.837-7.837-7.837H112.195l21.411-30.963h21.297a7.839 7.839 0 0 0 7.767-8.88 23.784 23.784 0 0 1-.219-3.161c0-12.947 10.533-23.48 23.48-23.48 11.304 0 21.008 8.054 23.073 19.152a7.836 7.836 0 0 0 14.15 3.023 9.725 9.725 0 0 1 7.991-4.205c5.355 0 9.712 4.357 9.712 9.712a7.837 7.837 0 0 0 7.837 7.837h27.246l21.407 30.963h-38.259a7.838 7.838 0 0 0-7.836 7.838zM363.909 404.66c22.259 0 40.369-18.109 40.369-40.369 0-22.259-18.109-40.369-40.369-40.369-22.258 0-40.368 18.109-40.368 40.369.001 22.26 18.11 40.369 40.368 40.369zm0-65.063c13.616 0 24.695 11.078 24.695 24.695s-11.079 24.695-24.695 24.695-24.694-11.078-24.694-24.695 11.078-24.695 24.694-24.695zM166.872 80.736c22.259 0 40.369-18.109 40.369-40.368C207.24 18.109 189.13 0 166.872 0c-4.329 0-7.837 3.509-7.837 7.837s3.508 7.837 7.837 7.837c13.616 0 24.695 11.078 24.695 24.695 0 13.616-11.079 24.694-24.695 24.694s-24.695-11.078-24.695-24.694c0-3.643.771-7.146 2.294-10.412a7.835 7.835 0 0 0-3.793-10.413 7.833 7.833 0 0 0-10.413 3.793c-2.496 5.355-3.762 11.086-3.762 17.033 0 22.257 18.109 40.366 40.369 40.366zM240.797 108.308c17.294 0 31.364-14.07 31.364-31.363s-14.07-31.363-31.364-31.363c-17.293 0-31.363 14.07-31.363 31.363s14.07 31.363 31.363 31.363zm0-47.052c8.651 0 15.69 7.038 15.69 15.689s-7.038 15.689-15.69 15.689-15.689-7.038-15.689-15.689 7.037-15.689 15.689-15.689z"/></svg>