<svg xmlns="http://www.w3.org/2000/svg" viewBox="0 0 512 512" style="enable-background:new 0 0 512 512" xml:space="preserve"><path style="fill:#57555c" d="M250.734 301.436c-15.464 0-28-12.537-28-28v-47.244h56.001v47.244c0 15.465-12.537 28-28.001 28z"/><path style="fill:#3c3a41" d="M278.735 257.526v-31.334h-56.001v43.652z"/><path style="fill:#c7c5cc" d="m319.541 223.846-214.583 46.496L82.946 196.1l205.109-78.454z"/><path style="fill:#adacb2" d="m288.055 117.645-31.037 11.872 21.717 73.247-182.113 39.459 8.336 28.119 214.583-46.496z"/><path style="fill:#c7c5cc" d="m88.25 292.68-48.107 14.264L8.655 200.743l48.107-14.264c11.845-3.512 24.294 3.243 27.806 15.088l18.771 63.307c3.51 11.845-3.245 24.294-15.089 27.806z"/><path style="fill:#adacb2" d="m103.337 264.875-18.771-63.307c-3.213-10.838-13.911-17.388-24.78-15.737l20.419 68.871c1.895 6.392-1.75 13.11-8.142 15.006l-39.492 11.709 7.569 25.528 48.107-14.264c11.847-3.513 18.602-15.962 15.09-27.806z"/><path transform="scale(-1) rotate(-16.518 -1121.354 2284.199)" style="fill:#c7c5cc" d="M290.311 86.374h82.457v152.769h-82.457z"/><path style="fill:#adacb2" d="m349.363 77.822-31.456 9.326 35.177 118.643-47.603 14.113 8.251 27.827 79.058-23.44z"/><path transform="scale(-1) rotate(-16.518 -946.507 2873.75)" style="fill:#c7c5cc" d="M357.239 30.241H476.98v214.28H357.239z"/><path style="fill:#adacb2" d="m444.068 17.663-21.517 6.379 52.03 175.489-93.284 27.658 8.882 29.955 114.803-34.037z"/><path d="M415.683 438.338h-10.547c-4.328 0-7.837 3.508-7.837 7.837s3.509 7.837 7.837 7.837h10.547a7.837 7.837 0 1 0 0-15.674zM118.963 85.659h13.615v13.614a7.837 7.837 0 0 0 7.837 7.837 7.837 7.837 0 0 0 7.837-7.837V85.659h13.614c4.328 0 7.837-3.508 7.837-7.837s-3.509-7.837-7.837-7.837h-13.614V56.37a7.837 7.837 0 0 0-7.837-7.837 7.837 7.837 0 0 0-7.837 7.837v13.615h-13.615c-4.328 0-7.837 3.508-7.837 7.837s3.509 7.837 7.837 7.837zM437.757 329.099h-13.615v-13.614a7.837 7.837 0 0 0-7.837-7.837 7.837 7.837 0 0 0-7.837 7.837v13.614h-13.614c-4.328 0-7.837 3.508-7.837 7.837s3.509 7.837 7.837 7.837h13.614v13.614a7.837 7.837 0 0 0 7.837 7.837 7.837 7.837 0 0 0 7.837-7.837v-13.614h13.615c4.328 0 7.837-3.508 7.837-7.837s-3.509-7.837-7.837-7.837z"/><path d="m511.676 220.879-42.02-141.722c-1.23-4.149-5.592-6.519-9.741-5.286a7.838 7.838 0 0 0-5.286 9.741l39.792 134.208-19.974 5.922-19.733-66.555a7.837 7.837 0 0 0-15.027 4.455l19.733 66.555-64.774 19.205L338.19 56.986l99.775-29.583 7.388 24.92a7.837 7.837 0 1 0 15.027-4.455l-9.616-32.433c-1.23-4.149-5.592-6.519-9.741-5.286L326.22 44.187a7.837 7.837 0 0 0-5.286 9.74l6.514 21.968-60.19 17.855a7.835 7.835 0 0 0-5.285 9.742l4.109 13.856-24.022 9.183a7.835 7.835 0 0 0-4.521 10.119 7.84 7.84 0 0 0 10.119 4.523l22.894-8.752 26.143 88.172-20.319 4.403-.092.02-134.076 29.053-8.927-30.107a7.834 7.834 0 0 0-9.741-5.286 7.837 7.837 0 0 0-5.286 9.741l8.593 28.98-17.259 3.74-10.067-33.943-7.819-26.37 125.307-47.928a7.836 7.836 0 0 0 4.52-10.12 7.836 7.836 0 0 0-10.119-4.519l-127.344 48.71a30.24 30.24 0 0 0-7.357-5.59c-7.093-3.849-15.259-4.704-22.993-2.411L5.609 193.229a7.837 7.837 0 0 0-5.286 9.74L31.811 309.17a7.83 7.83 0 0 0 7.513 5.609 7.85 7.85 0 0 0 2.228-.324l17.92-5.313a7.838 7.838 0 0 0-4.455-15.027l-10.406 3.086-27.033-91.175 40.594-12.036a14.436 14.436 0 0 1 11.062 1.16 14.436 14.436 0 0 1 6.988 8.603l12.008 40.492 6.776 22.855a14.436 14.436 0 0 1-1.16 11.062 14.43 14.43 0 0 1-8.642 7.002 7.837 7.837 0 1 0 4.454 15.027c7.736-2.293 14.116-7.462 17.964-14.553a30.294 30.294 0 0 0 3.124-8.713l25.756-5.581c.112.005.222.027.334.027a7.79 7.79 0 0 0 3.598-.88l73.643-15.959v18.896c0 15.387 9.748 28.538 23.392 33.608l-88.882 131.298h-5.199c-4.328 0-7.837 3.508-7.837 7.837s3.509 7.837 7.837 7.837h30.647c4.328 0 7.837-3.508 7.837-7.837s-3.509-7.837-7.837-7.837h-6.52l74.631-110.246-.824 158.416h-6.558c-4.328 0-7.837 3.508-7.837 7.837s3.509 7.837 7.837 7.837h54.596c4.328 0 7.837-3.508 7.837-7.837s-3.509-7.837-7.837-7.837h-32.365l.823-158.376 73.087 110.206h-17.558c-4.328 0-7.837 3.508-7.837 7.837s3.509 7.837 7.837 7.837h65.476c4.328 0 7.837-3.508 7.837-7.837s-3.509-7.837-7.837-7.837h-29.111L262.581 306.95c13.529-5.129 23.175-18.218 23.175-33.522v-34.429l15.406-3.338 4.237 14.29a7.835 7.835 0 0 0 9.742 5.286l60.191-17.847 6.516 21.977a7.84 7.84 0 0 0 7.511 5.611 7.85 7.85 0 0 0 2.231-.326l114.803-34.038a7.83 7.83 0 0 0 5.283-9.735zm-241.594 52.553c0 11.121-9.047 20.168-20.167 20.168s-20.167-9.047-20.167-20.168v-22.293l40.333-8.74v31.033zm48.118-35.446-34.969-117.938-.005-.016-3.998-13.483 52.674-15.626 38.973 131.445-52.675 15.618z"/></svg>