<svg xmlns="http://www.w3.org/2000/svg" viewBox="0 0 512 512"><path d="M113.61 416.26v-186a46.13 46.13 0 0 1 46.13-46.13H280l-8 3.55A53.45 53.45 0 0 0 241.85 224v237.32H161z" style="fill:#c6d0dc"/><path d="M113.5 416V230a46.13 46.13 0 0 1 46.13-46.13l93 .26s-38.14 3.54-38.14 47.87v229.32l-53.6-.26z" style="fill:#fff"/><path d="M446.94 137.12v186a46.13 46.13 0 0 1-46.13 46.12H318.7V92.06h80.82z" style="fill:#c6d0dc"/><path d="M421.46 112.9 421 322.63a46.12 46.12 0 0 1-46.12 46.13h-55.6V91.57h80.23z" style="fill:#fff"/><path style="fill:#ef835e" d="M400.12 95.67v45.09h50.61l-50.61-45.09zM161.01 457.79v-45.1H110.4l50.61 45.1z"/><path d="M388.65 368.76h-101a45.79 45.79 0 0 1-45.8-45.76v-89.81a51.26 51.26 0 0 1 50.86-47.8h.3a51.24 51.24 0 0 1 51.26 51.26l.12.31v81a51.29 51.29 0 0 0 44.26 50.79z" style="fill:#f7c648"/><path d="M440.94 276.2V318a45.32 45.32 0 0 1-45.26 45.27 44.78 44.78 0 0 1-5.34-.32H389.46A45.29 45.29 0 0 1 350.39 318v-82.16l-.13-.34A57.13 57.13 0 0 0 324.7 189V98.06h68.82v47.68h47.42v110.33h12V134.54l-51-48.48H312.7v93.33H160.28a52.61 52.61 0 0 0-52.55 52.55v27.55h12v-27.56a40.6 40.6 0 0 1 40.55-40.55h97.66a57.1 57.1 0 0 0-22.08 41.39c-.08 1.27-.13 2.58-.13 3.88v218.82h-69.46v-48.4h-46.54V277.31h-12v137.5L158 467.47h89.69V359.68a46.74 46.74 0 0 0 34.83 15.56h113.16A57.33 57.33 0 0 0 452.94 318v-41.8zM405.52 106l29.15 27.71h-29.15zM154.27 446.15l-25.87-27.08h25.87zm128.29-82.91a34.87 34.87 0 0 1-34.83-34.73v-91.86c0-1 0-2 .11-3.06a45.26 45.26 0 0 1 44.87-42.2h.3a45.23 45.23 0 0 1 45.26 45.26v1.12l.12.31V318a57.45 57.45 0 0 0 22.19 45.27z"/><path d="M135.7 250.07h51.23v12H135.7zM135.7 273.74h51.23v12H135.7zM135.7 297.4h67.51v12H135.7zM344.39 167.18h67.51v12h-67.51zM369.44 190.95h42.47v12h-42.47zM369.44 214.73h42.47v12h-42.47zM392.94 238.5h18.97v12h-18.97zM135.7 321.07h67.51v12H135.7zM135.7 344.74h25.62v12H135.7zM303.17 278.29l-10.53-2.64q-8.62-2.13-8.63-7.44a6.78 6.78 0 0 1 2.75-5.54c1.75-1.39 4.26-2.11 7.51-2.17h.7q8.77.09 11.2 7l10.63-2.64a15.82 15.82 0 0 0-8-9.9 27.52 27.52 0 0 0-8.91-3.06v-12.8h-12v13.08a21.85 21.85 0 0 0-9.17 4.34 16.28 16.28 0 0 0-6.17 13.32 18.17 18.17 0 0 0 1.74 7.86 14.1 14.1 0 0 0 4.66 5.69 29.13 29.13 0 0 0 9 3.61l11.85 3.09q4.77 1.23 6.22 3.38a8.25 8.25 0 0 1 1.45 4.7 7.06 7.06 0 0 1-3.2 5.86c-2 1.46-4.75 2.23-8.29 2.34h-1.82q-12.13-.33-14-9.2l-10.85 2.32a18.92 18.92 0 0 0 9.19 12 29.93 29.93 0 0 0 9.42 3.29v13.78h12V315a25.91 25.91 0 0 0 12.54-4.9 17.09 17.09 0 0 0 6.88-14.37 17.76 17.76 0 0 0-3.34-10.34q-3.25-4.69-12.83-7.1z"/><path d="M119.73 179.18h-12v-20h12zm0-36h-12v-20h12zm0-36h-12v-20h12zM298 98.06h-19.39v-12H298zm-35.34 0h-20v-12h20zm-36 0h-20v-12h20zm-36 0h-20v-12h20zm-36 0h-20v-12h20zM425.12 467.47h-20v-12h20zm-36 0h-20v-12h20zm-36 0h-20v-12h20zm-36 0h-20v-12h20zm-36 0h-19.33v-12h19.33zM452 466.34h-12v-20h12zm0-36h-12v-20h12zm0-36h-12v-20h12z" style="fill:#ef835e"/></svg>