<svg xmlns="http://www.w3.org/2000/svg" viewBox="0 0 512 512" style="enable-background:new 0 0 512 512" xml:space="preserve"><path style="fill:#ffd54f" d="m203.593 49.88 23.611 26.628c7.125 8.035 19.413 8.773 27.448 1.648s8.773-19.413 1.648-27.448L232.688 24.08l-29.095 25.8z"/><path style="fill:#ccc" d="M135.784 261.897c-6.426 0-12.48-3.916-14.896-10.28L73.28 126.216a15.93 15.93 0 0 1 6.159-18.976l132.983-83.873c7.356-4.823 17.233-2.768 22.056 4.589 4.823 7.358 2.768 17.233-4.589 22.056L107.606 126.87l43.067 113.439c3.123 8.225-1.014 17.424-9.239 20.547a15.926 15.926 0 0 1-5.65 1.041z"/><path style="fill:#b3b3b3" d="M158.875 229.679h-46.189c-20.266 0-36.695 16.429-36.695 36.695v22.163h119.58v-22.164c-.001-20.265-16.43-36.694-36.696-36.694z"/><circle style="fill:#b3b3b3" cx="88.169" cy="120.565" r="29.798"/><path style="fill:#b3b3b3" d="M194.371 95.444c-16.453-18.555-10.84-50.401 12.538-71.13s55.666-22.492 72.119-3.937l-84.657 75.067z"/><path style="fill:#ccc" d="M266.27 132.722V235.03l75.379 15.672 75.379-15.672V132.722z"/><path style="fill:#4d4d4d" d="M295.757 160.71h91.776v46.335h-91.776z"/><path style="fill:#b3b3b3" d="M417.028 235.03H266.27c-17.311 0-31.344 14.033-31.344 31.344v22.163h213.446v-22.164c.001-17.31-14.033-31.343-31.344-31.343z"/><path style="fill:#9e6036" d="M75.989 288.541h37.392v215.928H75.989zM398.626 288.541h37.392v215.928h-37.392z"/><path style="opacity:.1;enable-background:new" d="M398.626 288.541h37.392v52.304h-37.392zM75.989 288.541h37.392v52.304H75.989z"/><path style="fill:#b8703f" d="M479.076 266.373H32.925c-12.24 0-22.163 9.923-22.163 22.163s9.923 22.163 22.163 22.163h446.15c12.24 0 22.163-9.923 22.163-22.163s-9.922-22.163-22.162-22.163z"/><path style="opacity:.1;enable-background:new" d="M50.958 288.537c0-12.24 9.923-22.164 22.163-22.164H32.925c-12.24 0-22.163 9.923-22.163 22.164S20.686 310.7 32.925 310.7H73.12c-12.24 0-22.162-9.923-22.162-22.163z"/><circle cx="88.169" cy="120.565" r="12.159"/><path d="M387.537 153.174h-41.141a7.536 7.536 0 0 0-7.537 7.537 7.536 7.536 0 0 0 7.537 7.537H380v31.258h-76.702v-31.258h12.952a7.536 7.536 0 0 0 7.537-7.537 7.536 7.536 0 0 0-7.537-7.537h-20.488a7.536 7.536 0 0 0-7.537 7.537v46.331a7.536 7.536 0 0 0 7.537 7.537h91.776a7.536 7.536 0 0 0 7.537-7.537V160.71a7.538 7.538 0 0 0-7.538-7.536z"/><path d="M32.925 318.236h35.527v186.227A7.536 7.536 0 0 0 75.989 512h37.388a7.536 7.536 0 0 0 7.537-7.537v-32.344a7.536 7.536 0 0 0-7.537-7.537h-.118a7.536 7.536 0 0 0-7.419 8.872v23.473H83.527V318.236h22.314v122.402a7.536 7.536 0 0 0 7.419 8.871h.118a7.536 7.536 0 0 0 7.537-7.537V318.236h32.739c4.163 0 7.537-3.374 7.537-7.537s-3.373-7.537-7.537-7.537H32.925c-8.065 0-14.627-6.562-14.627-14.627s6.561-14.626 14.627-14.626h446.149c8.065 0 14.627 6.561 14.627 14.626s-6.561 14.627-14.627 14.627H183.8c-4.163 0-7.537 3.374-7.537 7.537s3.373 7.537 7.537 7.537h207.286v21.321a7.536 7.536 0 0 0 7.537 7.537 7.536 7.536 0 0 0 7.537-7.537v-21.321h22.314v178.691H406.16V369.704a7.536 7.536 0 0 0-7.537-7.537 7.536 7.536 0 0 0-7.537 7.537v134.759a7.536 7.536 0 0 0 7.537 7.537h37.388a7.536 7.536 0 0 0 7.537-7.537V318.236h35.527c16.377 0 29.7-13.324 29.7-29.7 0-16.377-13.324-29.699-29.7-29.699h-23.906c-3.039-15.404-15.2-27.566-30.605-30.605v-95.511a7.536 7.536 0 0 0-7.537-7.537H266.269a7.536 7.536 0 0 0-7.537 7.537v95.511c-15.404 3.039-27.566 15.201-30.605 30.605h-25.678c-3.589-20.81-21.757-36.695-43.576-36.695h-7.038l-31.428-82.782a37.053 37.053 0 0 0 4.868-14.694l56.278-35.373a43.425 43.425 0 0 0 7.178 11.151c2.725 3.073 7.566 3.365 10.639.639l22.141-19.633.052.059c9.723 10.995 27.126 12.007 38.088 2.286 11.13-9.871 12.156-26.957 2.285-38.088l-.051-.058 22.142-19.633a7.536 7.536 0 0 0 .639-10.64C275.875 5.461 262.991 0 248.388 0c-16.153 0-33.095 6.806-46.479 18.675a78.5 78.5 0 0 0-6.541 6.537L100.209 85.23a37.159 37.159 0 0 0-12.036-2.003c-20.586 0-37.334 16.748-37.334 37.334 0 16.524 10.794 30.566 25.7 35.468l25.586 67.395c-16.914 4.161-30.024 18.073-33.014 35.411H32.925c-16.377 0-29.7 13.323-29.7 29.699 0 16.377 13.325 29.702 29.7 29.702zm240.881-177.977h135.686v87.235H273.806v-87.235zm-30.12 118.578c3.16-9.445 12.09-16.27 22.585-16.27H417.03c10.494 0 19.424 6.826 22.585 16.271l-195.929-.001zm6.923-203.188.052.058c4.355 4.913 3.903 12.453-1.009 16.81-4.856 4.307-12.506 3.845-16.811-1.009l-.052-.059 17.82-15.8zm-38.7-25.696c10.665-9.457 23.959-14.88 36.478-14.88 7.298 0 13.91 1.862 19.238 5.342L195.76 84.141c-1.172-2.353-2.021-4.864-2.57-7.48-.018-.12-.019-.239-.042-.359-3.416-17.376 6.035-35.065 18.761-46.349zm-32.088 22.886c-2.047 7.047-2.821 14.214-2.207 21.129l-54.262 34.106a37.417 37.417 0 0 0-8.902-14.004l65.371-41.231zM65.912 120.562c0-12.275 9.986-22.261 22.261-22.261 11.396 0 21.247 9.03 22.177 20.393l.018.232c.918 12.49-9.598 23.865-22.14 23.896l-.062.001c-12.017-.228-22.254-10.062-22.254-22.261zm27.8 36.922c.152-.022.301-.049.453-.073 5.333-.851 10.355-2.818 14.777-5.789l26.773 70.521H117.76l-24.518-64.582c.157-.022.312-.054.47-.077zm-9.198 101.353c3.327-12.422 14.675-21.6 28.128-21.62l.141-.002H158.874c13.472 0 24.841 9.186 28.171 21.622H84.514z"/></svg>